<?xml version="1.0" encoding="utf-8"?>
<!-- Generator: Adobe Illustrator 16.0.0, SVG Export Plug-In . SVG Version: 6.00 Build 0)  -->
<!DOCTYPE svg PUBLIC "-//W3C//DTD SVG 1.1//EN" "http://www.w3.org/Graphics/SVG/1.1/DTD/svg11.dtd">
<svg version="1.1" id="Capa_1" xmlns="http://www.w3.org/2000/svg" xmlns:xlink="http://www.w3.org/1999/xlink" x="0px" y="0px"
	 width="1366px" height="768px" viewBox="0 0 1366 768" enable-background="new 0 0 1366 768" xml:space="preserve">
<g>
	<circle fill="#780096" cx="1822.481" cy="-357.382" r="15.725"/>
	<circle fill="#780096" cx="2015.481" cy="-288.382" r="15.725"/>
	<circle fill="#780096" cx="1939.498" cy="-347.678" r="29.703"/>
	<circle fill="#FF0082" cx="2046.688" cy="-373.483" r="16.163"/>
	<circle fill="#780096" cx="2220.238" cy="-332.654" r="44.555"/>
	<circle fill="#FF0082" cx="1915.987" cy="-226.189" r="18.783"/>
	<circle fill="#FF0082" cx="1838.062" cy="-288.016" r="8.299"/>
	<circle fill="#FF0082" cx="2114.062" cy="-318.016" r="8.299"/>
	<circle fill="#780096" cx="2006.481" cy="-212.382" r="15.725"/>
	<circle fill="#780096" cx="2199.481" cy="-143.382" r="15.725"/>
	<circle fill="#780096" cx="2123.498" cy="-202.678" r="29.703"/>
	<circle fill="#FF0082" cx="2230.688" cy="-228.483" r="16.163"/>
	<circle fill="#780096" cx="2404.238" cy="-187.654" r="44.555"/>
	<circle fill="#FF0082" cx="2099.987" cy="-81.189" r="18.783"/>
	<circle fill="#FF0082" cx="2022.062" cy="-143.016" r="8.299"/>
	<circle fill="#FF0082" cx="2298.062" cy="-173.016" r="8.299"/>
	<circle fill="#780096" cx="2190.481" cy="-67.382" r="15.725"/>
	<circle fill="#780096" cx="2383.481" cy="1.618" r="15.725"/>
	<circle fill="#780096" cx="2307.498" cy="-57.678" r="29.703"/>
	<circle fill="#FF0082" cx="2414.688" cy="-83.483" r="16.163"/>
	<circle fill="#780096" cx="2588.238" cy="-42.654" r="44.555"/>
	<circle fill="#FF0082" cx="2283.987" cy="63.811" r="18.783"/>
	<circle fill="#FF0082" cx="2206.062" cy="1.984" r="8.299"/>
	<circle fill="#FF0082" cx="2482.062" cy="-28.016" r="8.299"/>
	<circle fill="#780096" cx="2374.481" cy="77.618" r="15.725"/>
	<circle fill="#780096" cx="2567.481" cy="146.618" r="15.725"/>
	<circle fill="#780096" cx="2491.498" cy="87.322" r="29.703"/>
	<circle fill="#FF0082" cx="2598.688" cy="61.517" r="16.163"/>
	<circle fill="#780096" cx="2772.238" cy="102.346" r="44.555"/>
	<circle fill="#FF0082" cx="2467.987" cy="208.811" r="18.783"/>
	<circle fill="#FF0082" cx="2390.062" cy="146.984" r="8.299"/>
	<circle fill="#FF0082" cx="2666.062" cy="116.984" r="8.299"/>
	<circle fill="#780096" cx="2558.481" cy="222.618" r="15.725"/>
	<circle fill="#780096" cx="2751.481" cy="291.618" r="15.725"/>
	<circle fill="#780096" cx="2675.498" cy="232.322" r="29.703"/>
	<circle fill="#FF0082" cx="2782.688" cy="206.517" r="16.163"/>
	<circle fill="#780096" cx="2956.238" cy="247.346" r="44.555"/>
	<circle fill="#FF0082" cx="2651.987" cy="353.811" r="18.783"/>
	<circle fill="#FF0082" cx="2574.062" cy="291.984" r="8.299"/>
	<circle fill="#FF0082" cx="2850.062" cy="261.984" r="8.299"/>
	<circle fill="#780096" cx="2742.481" cy="367.618" r="15.725"/>
	<circle fill="#780096" cx="2935.481" cy="436.618" r="15.725"/>
	<circle fill="#780096" cx="2859.498" cy="377.322" r="29.703"/>
	<circle fill="#FF0082" cx="2966.688" cy="351.517" r="16.163"/>
	<circle fill="#780096" cx="3140.238" cy="392.346" r="44.555"/>
	<circle fill="#FF0082" cx="2835.987" cy="498.811" r="18.783"/>
	<circle fill="#FF0082" cx="2758.062" cy="436.984" r="8.299"/>
	<circle fill="#FF0082" cx="3034.062" cy="406.984" r="8.299"/>
</g>
<g>
	<circle fill="#780096" cx="3143.481" cy="-653.382" r="15.725"/>
	<circle fill="#780096" cx="3336.481" cy="-584.382" r="15.725"/>
	<circle fill="#780096" cx="3260.498" cy="-643.678" r="29.703"/>
	<circle fill="#FF0082" cx="3367.688" cy="-669.483" r="16.163"/>
	<circle fill="#780096" cx="3541.238" cy="-628.654" r="44.555"/>
	<circle fill="#FF0082" cx="3236.987" cy="-522.189" r="18.783"/>
	<circle fill="#FF0082" cx="3159.062" cy="-584.016" r="8.299"/>
	<circle fill="#FF0082" cx="3435.062" cy="-614.016" r="8.299"/>
	<circle fill="#780096" cx="3327.481" cy="-508.382" r="15.725"/>
	<circle fill="#780096" cx="3520.481" cy="-439.382" r="15.725"/>
	<circle fill="#780096" cx="3444.498" cy="-498.678" r="29.703"/>
	<circle fill="#FF0082" cx="3551.688" cy="-524.483" r="16.163"/>
	<circle fill="#780096" cx="3725.238" cy="-483.654" r="44.555"/>
	<circle fill="#FF0082" cx="3420.987" cy="-377.189" r="18.783"/>
	<circle fill="#FF0082" cx="3343.062" cy="-439.016" r="8.299"/>
	<circle fill="#FF0082" cx="3619.062" cy="-469.016" r="8.299"/>
	<circle fill="#780096" cx="3511.481" cy="-363.382" r="15.725"/>
	<circle fill="#780096" cx="3704.481" cy="-294.382" r="15.725"/>
	<circle fill="#780096" cx="3628.498" cy="-353.678" r="29.703"/>
	<circle fill="#FF0082" cx="3735.688" cy="-379.483" r="16.163"/>
	<circle fill="#780096" cx="3909.238" cy="-338.654" r="44.555"/>
	<circle fill="#FF0082" cx="3604.987" cy="-232.189" r="18.783"/>
	<circle fill="#FF0082" cx="3527.062" cy="-294.016" r="8.299"/>
	<circle fill="#FF0082" cx="3803.062" cy="-324.016" r="8.299"/>
	<circle fill="#780096" cx="3695.481" cy="-218.382" r="15.725"/>
	<circle fill="#780096" cx="3888.481" cy="-149.382" r="15.725"/>
	<circle fill="#780096" cx="3812.498" cy="-208.678" r="29.703"/>
	<circle fill="#FF0082" cx="3919.688" cy="-234.483" r="16.163"/>
	<circle fill="#780096" cx="4093.238" cy="-193.654" r="44.555"/>
	<circle fill="#FF0082" cx="3788.987" cy="-87.189" r="18.783"/>
	<circle fill="#FF0082" cx="3711.062" cy="-149.016" r="8.299"/>
	<circle fill="#FF0082" cx="3987.062" cy="-179.016" r="8.299"/>
	<circle fill="#780096" cx="3879.481" cy="-73.382" r="15.725"/>
	<circle fill="#780096" cx="4072.481" cy="-4.382" r="15.725"/>
	<circle fill="#780096" cx="3996.498" cy="-63.678" r="29.703"/>
	<circle fill="#FF0082" cx="4103.688" cy="-89.483" r="16.163"/>
	<circle fill="#780096" cx="4277.238" cy="-48.654" r="44.555"/>
	<circle fill="#FF0082" cx="3972.987" cy="57.811" r="18.783"/>
	<circle fill="#FF0082" cx="3895.062" cy="-4.016" r="8.299"/>
	<circle fill="#FF0082" cx="4171.062" cy="-34.016" r="8.299"/>
	<circle fill="#780096" cx="4063.481" cy="71.618" r="15.725"/>
	<circle fill="#780096" cx="4256.481" cy="140.618" r="15.725"/>
	<circle fill="#780096" cx="4180.498" cy="81.322" r="29.703"/>
	<circle fill="#FF0082" cx="4287.688" cy="55.517" r="16.163"/>
	<circle fill="#780096" cx="4461.238" cy="96.346" r="44.555"/>
	<circle fill="#FF0082" cx="4156.987" cy="202.811" r="18.783"/>
	<circle fill="#FF0082" cx="4079.062" cy="140.984" r="8.299"/>
	<circle fill="#FF0082" cx="4355.062" cy="110.984" r="8.299"/>
</g>
<path fill="none" stroke="#780096" stroke-width="6" stroke-miterlimit="10" d="M-168,273
	c-1.288-67.74,66.392-129.38,127.096-136.89c59.905-7.41,110.458,0.543,164.674-31.004c39.833-23.179,71.336-62.903,111.723-87.261
	C285.389-12.248,339.567-8.933,396-7"/>
<path fill="none" stroke="#780096" stroke-width="6" stroke-miterlimit="10" d="M-168,243
	c-1.288-67.74,66.392-129.38,127.096-136.89c59.905-7.41,110.458,0.543,164.674-31.004c39.833-23.179,71.336-62.903,111.723-87.261
	C285.389-42.248,339.567-38.933,396-37"/>
<path fill="none" stroke="#780096" stroke-width="6" stroke-miterlimit="10" d="M-168,213
	c-1.288-67.74,66.392-129.38,127.096-136.89C19.001,68.7,69.555,76.653,123.77,45.105c39.833-23.179,71.336-62.903,111.723-87.261
	C285.389-72.248,339.567-68.933,396-67"/>
<path fill="none" stroke="#780096" stroke-width="6" stroke-miterlimit="10" d="M-168,183
	c-1.288-67.74,66.392-129.38,127.096-136.89C19.001,38.7,69.555,46.653,123.77,15.105c39.833-23.179,71.336-62.903,111.723-87.261
	C285.389-102.248,339.567-98.933,396-97"/>
<path fill="none" stroke="#780096" stroke-width="6" stroke-miterlimit="10" d="M-168,153
	c-1.288-67.74,66.392-129.38,127.096-136.89C19.001,8.7,69.555,16.653,123.77-14.895c39.833-23.179,71.336-62.903,111.723-87.261
	C285.389-132.248,339.567-128.933,396-127"/>
<path fill="none" stroke="#780096" stroke-width="6" stroke-miterlimit="10" d="M-168,123C-169.288,55.26-101.608-6.38-40.904-13.89
	C19.001-21.3,69.555-13.347,123.77-44.895c39.833-23.179,71.336-62.903,111.723-87.261C285.389-162.248,339.567-158.933,396-157"/>
<path fill="none" stroke="#780096" stroke-width="6" stroke-miterlimit="10" d="M1444,525
	c-28.911-34.945-91.609-63.919-136.644-50.003c-46.274,14.3-60.002,63.946-68.94,106.693
	c-34.104,163.085-190.877,81.179-309.857,114.725c-77.781,21.93-149.365,62.187-229.447,76.585
	c-46.3,8.324-93.402,3.946-140.019,8.266C515.045,785.347,472.281,799.364,428,801"/>
<path fill="none" stroke="#780096" stroke-width="6" stroke-miterlimit="10" d="M1476,552
	c-28.911-34.945-91.609-63.919-136.644-50.003c-46.274,14.3-60.002,63.946-68.94,106.693
	c-34.104,163.085-190.877,81.179-309.857,114.725c-77.781,21.93-149.365,62.187-229.447,76.585
	c-46.301,8.324-93.402,3.946-140.019,8.266C547.045,812.347,504.281,826.364,460,828"/>
<path fill="none" stroke="#780096" stroke-width="6" stroke-miterlimit="10" d="M1508,579
	c-28.911-34.945-91.609-63.919-136.644-50.003c-46.274,14.3-60.002,63.946-68.94,106.693
	c-34.104,163.085-190.877,81.179-309.857,114.725c-77.781,21.93-149.365,62.187-229.447,76.585
	c-46.301,8.324-93.402,3.946-140.019,8.266C579.045,839.347,536.281,853.364,492,855"/>
<path fill="none" stroke="#780096" stroke-width="6" stroke-miterlimit="10" d="M1540,606
	c-28.911-34.945-91.609-63.919-136.644-50.003c-46.274,14.3-60.002,63.946-68.94,106.693
	c-34.104,163.085-190.877,81.179-309.857,114.725c-77.781,21.93-149.365,62.187-229.447,76.585
	c-46.301,8.324-93.402,3.946-140.019,8.266C611.045,866.347,568.281,880.364,524,882"/>
<path fill="none" stroke="#780096" stroke-width="6" stroke-miterlimit="10" d="M1572,633
	c-28.911-34.945-91.609-63.919-136.644-50.003c-46.274,14.3-60.002,63.946-68.94,106.693
	c-34.104,163.085-190.877,81.179-309.857,114.725c-77.781,21.93-149.365,62.187-229.447,76.585
	c-46.301,8.324-93.402,3.946-140.019,8.266C643.045,893.347,600.281,907.364,556,909"/>
<path fill="none" stroke="#780096" stroke-width="6" stroke-miterlimit="10" d="M1604,660
	c-28.911-34.945-91.609-63.919-136.644-50.003c-46.274,14.3-60.002,63.946-68.94,106.693
	c-34.104,163.085-190.877,81.179-309.857,114.725c-77.781,21.93-149.365,62.187-229.447,76.585
	c-46.301,8.324-93.402,3.946-140.019,8.266C675.045,920.347,632.281,934.364,588,936"/>
<line fill="none" stroke="#FF0082" stroke-width="31" stroke-linecap="round" stroke-linejoin="round" stroke-miterlimit="10" x1="1256" y1="35.5" x2="1476" y2="35.5"/>
<line fill="none" stroke="#FF0082" stroke-width="31" stroke-linecap="round" stroke-linejoin="round" stroke-miterlimit="10" x1="1188" y1="87.5" x2="1476" y2="87.5"/>
<line fill="none" stroke="#FF0082" stroke-width="31" stroke-linecap="round" stroke-linejoin="round" stroke-miterlimit="10" x1="1300" y1="138.5" x2="1588" y2="138.5"/>
<ellipse fill="#FF0082" cx="-32" cy="801.172" rx="216" ry="214.828"/>
<ellipse fill="#780096" cx="-60" cy="832.172" rx="216" ry="214.828"/>
</svg>
